<svg xmlns="http://www.w3.org/2000/svg" viewBox="76.2 119.01 69.04 142.41">
  <path style="fill: rgb(216, 216, 216); stroke: rgb(136, 60, 0);" d="M 108.63 259.798 C 108.63 237.057 107.115 214.38 107.115 191.689 C 107.115 183.849 107.115 176.009 107.115 168.17 C 107.115 165.529 107.115 162.888 107.115 160.248 C 107.115 159.412 107.115 156.369 107.115 156.965"/>
  <path style="fill: rgb(216, 216, 216); stroke: rgb(136, 60, 0);" d="M 118.553 260.92 C 118.553 226.537 118.375 191.172 118.375 157.282"/>
  <path style="fill: rgb(81, 166, 84); paint-order: stroke; stroke: rgb(81, 166, 84);" d="M 78.732 204.494 C 82.43 204.473 86.524 201.63 89.379 199.489 C 95.312 195.039 101.201 190.586 106.515 185.403 C 108.624 183.346 111.678 180.923 113.201 178.375 C 113.781 177.404 114.562 176.425 115.258 175.527 C 115.585 175.106 115.993 173.574 115.993 174.107 C 115.993 182.762 120.465 190.74 127.074 196.35 C 129.847 198.704 132.989 202.219 136.157 203.96 C 136.842 204.337 143.356 205.874 143.356 206.807"/>
  <path style="fill: rgb(81, 166, 84); stroke: rgb(81, 166, 84);" d="M 85.686 185.095 C 88.25 182.306 91.504 180.063 94.022 177.175 C 98.93 171.545 102.216 165.369 105.786 158.892 C 107.706 155.409 108.703 151.438 111.112 148.23 C 111.863 147.232 112.38 146.199 112.937 145.09 C 113.215 144.537 113.572 142.906 113.837 143.465 C 114.267 144.371 113.675 145.917 114.04 146.919 C 116.747 154.358 118.462 163.299 123.808 169.409 C 127.683 173.838 132.414 178.057 137.529 181.011 C 138.342 181.481 142.903 183.587 142.903 184.46"/>
  <path style="fill: rgb(81, 166, 84); stroke: rgb(81, 166, 84);" d="M 80.021 163.053 C 81.934 162.678 83.623 161.533 85.234 160.458 C 89.419 157.665 98.415 152.082 98.415 146.286 C 98.415 145.852 98.381 147.17 98.219 147.573 C 98.104 147.86 96.668 149.356 96.953 148.293 C 97.403 146.61 99.163 145.201 99.988 143.711 C 101.021 141.847 100.673 139.138 101.295 137.16 C 101.958 135.054 103.228 132.781 103.61 130.617 C 103.627 130.52 102.3 133.939 101.95 133.088 C 101.56 132.14 102.433 130.613 102.808 129.747 C 103.862 127.306 106.038 123.98 108.128 122.168 C 108.985 121.424 109.219 119.19 110.296 119.545 C 110.323 119.554 110.486 123.419 110.524 123.497 C 111.796 126.127 113.246 128.599 114.944 131.016 C 115.743 132.154 116.712 133.188 117.525 134.312 C 117.911 134.844 118.563 136.646 118.563 135.989 C 118.563 135.265 117.979 133.173 117.979 133.897 C 117.979 137.231 122.092 142.425 124.25 144.946 C 125.087 145.925 125.541 147.276 126.336 148.324 C 126.766 148.893 128.008 150.561 127.406 150.178 C 127.286 150.102 125.257 147.59 125.371 147.511 C 125.485 147.432 126.943 147.266 127.053 147.471 C 127.429 148.17 127.18 148.944 127.353 149.662 C 128.05 152.551 132.075 155.825 134.309 157.504 C 135.156 158.141 136.294 158.593 137.059 159.302 C 137.278 159.505 138.448 160.534 138.448 160.243"/>
  <path style="stroke: rgb(81, 166, 84); paint-order: fill; fill: rgb(81, 166, 84);" d="M 85.203 184.518 C 83.062 185.553 79.265 188.904 76.81 188.904 C 76.262 188.904 77.834 188.491 78.294 188.193 C 79.172 187.624 79.803 186.6 80.95 186.559 C 83.205 186.478 88.86 182.682 89.484 180.374 C 89.547 180.142 89.893 176.278 90.869 176.809 C 91.107 176.939 90.798 178.321 90.674 178.471 C 90.503 178.677 89.659 178.771 89.927 178.771 C 90.618 178.771 94.989 175.627 95.522 175.046 C 97.713 172.658 95.22 172.023 96.274 170.567 C 96.647 170.052 97.235 169.612 97.519 169.047 C 97.659 168.766 100.886 166.033 100.886 166.346 C 100.886 166.848 97.934 169.508 97.665 169.917 C 97.512 170.149 100.46 165.187 100.625 164.963 C 102.553 162.324 100.237 163.876 102.576 161.536"/>
  <path style="stroke: rgb(81, 166, 84); paint-order: fill; fill: rgb(81, 166, 84);" d="M 80.203 162.132 C 83.71 162.132 88.934 164.17 92.569 162.983 C 96.428 161.722 100.412 161.661 104.54 161.661"/>
  <path style="stroke: rgb(81, 166, 84); paint-order: fill; fill: rgb(81, 166, 84);" d="M 103.316 156.545 C 99.277 156.545 128.524 162.663 124.31 161.223 C 122.986 160.771 121.377 160.38 119.982 160.38 C 119.567 160.38 117.121 160.076 118.232 160.076 C 118.232 159.734 119.072 162.017 119.273 162.432 C 119.676 163.265 122.633 168.845 123.318 168.679 C 123.449 168.648 121.416 164.047 121.528 163.65 C 121.643 163.244 121.906 164.449 122.253 164.689 C 123.031 165.226 122.876 166.734 123.578 167.453 C 126.081 170.018 127.116 173.099 129.205 175.746 C 129.607 176.255 128.812 174.508 128.575 173.904 C 128.083 172.651 127.255 171.755 127.289 170.333 C 127.301 169.822 128.062 171.026 128.326 171.464 C 128.826 172.291 129.543 172.994 130.143 173.767 C 131.834 175.949 134.206 178.031 136.332 179.78 C 136.825 180.185 135.746 178.648 135.451 178.083 C 134.945 177.117 133.343 177.43 133.028 176.037 C 132.861 175.296 134.438 176.685 134.971 177.227 C 135.961 178.232 136.902 179.829 138.16 180.508 C 139.086 181.008 145.022 183.585 144.729 184.802 C 144.634 185.194 144.076 184.33 143.754 184.088 C 142.987 183.513 142.301 182.974 141.374 182.698"/>
  <path style="stroke: rgb(81, 166, 84); paint-order: stroke; fill: rgb(81, 166, 84);" d="M 144.516 184.202 C 139.041 184.626 135.399 185.654 129.844 185.407 C 126.193 185.245 122.27 185.856 118.818 184.946 C 117.323 184.552 116.036 183.247 114.445 183.247"/>
  <path style="stroke: rgb(81, 166, 84); paint-order: fill; fill: rgb(81, 166, 84);" d="M 76.777 189.155 C 82.106 189.155 81.592 185.499 86.838 184.91 C 91.239 184.416 102.402 185.042 106.432 185.042"/>
  <path style="stroke: rgb(81, 166, 84); paint-order: fill; fill: rgb(81, 166, 84);" d="M 143.584 207.21 C 143.584 207.319 141.923 207.267 141.712 207.267 C 139.45 207.267 137.409 206.976 135.199 206.661 C 131.563 206.141 127.937 205.437 124.384 204.432 C 122.182 203.809 118.381 207.156 116.049 207.075 C 114.349 208.2 112.309 202.463 110.228 202.71 C 109.202 202.831 108.237 203.169 107.265 203.371 C 106.812 203.466 105.665 204.103 105.919 203.716 C 106.124 203.405 110.03 206.399 109.658 206.399 C 104.372 206.399 95.62 204.55 90.352 205.585 C 86.672 206.308 82.52 205.015 78.848 205.015"/>
  <rect x="109.433" y="206.042" width="7.187" height="54.509" style="stroke: rgb(136, 60, 0); paint-order: fill; fill: rgb(136, 60, 0);"/>
  <rect x="107.059" y="208.604" width="1.612" height="6.914" style="fill: rgb(136, 60, 0); paint-order: stroke; stroke: rgb(136, 60, 0);"/>
  <rect x="108.108" y="214.855" width="2.79" height="6.914" style="fill: rgb(136, 60, 0); paint-order: stroke; stroke: rgb(136, 60, 0); stroke-width: 1;"/>
  <rect x="116.669" y="207.232" width="0.854" height="40.69" style="fill: rgb(136, 60, 0); paint-order: stroke; stroke: rgb(136, 60, 0); stroke-width: 1;"/>
  <rect x="116.941" y="219.671" width="0.854" height="40.69" style="fill: rgb(136, 60, 0); paint-order: stroke; stroke: rgb(136, 60, 0); stroke-width: 1;"/>
  <rect x="108.621" y="209.648" width="0.854" height="40.69" style="fill: rgb(136, 60, 0); paint-order: stroke; stroke: rgb(136, 60, 0); stroke-width: 1;"/>
  <rect x="107.654" y="206.226" width="0.854" height="9.893" style="fill: rgb(136, 60, 0); paint-order: stroke; stroke: rgb(136, 60, 0); stroke-width: 1;"/>
</svg>